<?xml version="1.0" encoding="UTF-8" standalone="no"?>
<svg
   xmlns:dc="http://purl.org/dc/elements/1.1/"
   xmlns:cc="http://creativecommons.org/ns#"
   xmlns:rdf="http://www.w3.org/1999/02/22-rdf-syntax-ns#"
   xmlns:svg="http://www.w3.org/2000/svg"
   xmlns="http://www.w3.org/2000/svg"
   xmlns:sodipodi="http://sodipodi.sourceforge.net/DTD/sodipodi-0.dtd"
   xmlns:inkscape="http://www.inkscape.org/namespaces/inkscape"
   version="1.1"
   id="Layer_1"
   x="0px"
   y="0px"
   viewBox="0 0 1808.8168 473.40654"
   xml:space="preserve"
   sodipodi:docname="prestar_negro.svg"
   inkscape:version="1.0.2 (e86c8708, 2021-01-15)"
   width="1808.8168"
   height="473.40656"><metadata
   id="metadata83"><rdf:RDF><cc:Work
       rdf:about=""><dc:format>image/svg+xml</dc:format><dc:type
         rdf:resource="http://purl.org/dc/dcmitype/StillImage" /><dc:title></dc:title></cc:Work></rdf:RDF></metadata><defs
   id="defs81" /><sodipodi:namedview
   pagecolor="#ffffff"
   bordercolor="#666666"
   borderopacity="1"
   objecttolerance="10"
   gridtolerance="10"
   guidetolerance="10"
   inkscape:pageopacity="0"
   inkscape:pageshadow="2"
   inkscape:window-width="1858"
   inkscape:window-height="1027"
   id="namedview79"
   showgrid="false"
   inkscape:zoom="0.5484375"
   inkscape:cx="943.1599"
   inkscape:cy="-177.15763"
   inkscape:window-x="62"
   inkscape:window-y="25"
   inkscape:window-maximized="1"
   inkscape:current-layer="Layer_1" />
<style
   type="text/css"
   id="style10">
	.st0{fill:#EBF0F1;}
	.st1{fill:#F2E916;}
	.st2{fill:#0895D2;}
	.st3{fill:#FFFFFF;}
	.st4{fill:#C5EEFC;}
	.st5{fill:#F4F4F4;}
	.st6{fill:#686868;}
	.st7{fill:#E8B410;}
</style>





<g
   id="g76"
   transform="matrix(5.8691612,0,0,5.8691612,-7547.1544,-2932.7025)">
	<g
   id="g72">
		<g
   id="g70">
			<path
   class="st6"
   d="m 1285.9,580.32 v -64.43 h 11.21 l 0.84,4.91 h 0.63 c 1.34,-1.71 3.04,-3.07 5.08,-4.09 2.04,-1.02 4.42,-1.53 7.14,-1.53 3.39,0 6.51,0.77 9.37,2.31 2.86,1.54 5.15,3.98 6.87,7.33 1.72,3.35 2.58,7.74 2.58,13.17 0,5.35 -0.94,9.85 -2.81,13.5 -1.88,3.65 -4.68,6.43 -8.4,8.34 -3.72,1.9 -8.33,2.86 -13.82,2.86 -0.92,0 -1.84,-0.04 -2.75,-0.1 -0.91,-0.07 -1.77,-0.15 -2.58,-0.23 v 17.98 h -13.36 z m 18.69,-27.8 c 3.86,0 6.76,-1.04 8.69,-3.11 1.93,-2.07 2.9,-5.53 2.9,-10.37 0,-3.33 -0.39,-5.94 -1.16,-7.83 -0.77,-1.89 -1.86,-3.21 -3.28,-3.97 -1.42,-0.76 -3.04,-1.13 -4.89,-1.13 -1.4,0 -2.77,0.25 -4.12,0.76 -1.34,0.5 -2.51,1.29 -3.49,2.35 v 22.81 c 0.73,0.11 1.58,0.22 2.54,0.34 0.99,0.09 1.92,0.15 2.81,0.15 z"
   id="path56" />
			<path
   class="st6"
   d="m 1337.56,561.84 v -45.95 h 10.92 l 1.05,5.96 h 0.67 c 1.29,-2.3 3,-3.97 5.12,-5.02 2.13,-1.05 4.47,-1.58 7.01,-1.58 0.67,0 1.34,0.03 2,0.08 0.66,0.06 1.24,0.14 1.74,0.25 v 12.1 c -0.7,-0.11 -1.44,-0.2 -2.23,-0.25 -0.78,-0.06 -1.55,-0.08 -2.31,-0.08 -1.32,0 -2.64,0.16 -3.97,0.48 -1.33,0.32 -2.58,0.81 -3.74,1.47 -1.16,0.66 -2.14,1.46 -2.92,2.42 v 30.11 h -13.34 z"
   id="path58" />
			<path
   class="st6"
   d="m 1394.26,562.72 c -5.77,0 -10.52,-0.83 -14.26,-2.48 -3.74,-1.65 -6.5,-4.24 -8.29,-7.77 -1.79,-3.53 -2.69,-8.06 -2.69,-13.61 0,-5.07 0.84,-9.37 2.52,-12.92 1.68,-3.54 4.1,-6.22 7.27,-8.04 3.16,-1.82 7.01,-2.73 11.55,-2.73 4.34,0 7.99,0.92 10.94,2.75 2.95,1.83 5.19,4.54 6.72,8.11 1.53,3.57 2.29,7.97 2.29,13.21 v 3.49 h -33.64 v -7.69 h 23.31 l -2.14,0.8 c 0,-3.05 -0.28,-5.46 -0.84,-7.22 -0.56,-1.76 -1.41,-3.04 -2.54,-3.82 -1.13,-0.78 -2.54,-1.18 -4.22,-1.18 -1.71,0 -3.14,0.39 -4.31,1.16 -1.16,0.77 -2.04,2.04 -2.62,3.82 -0.59,1.78 -0.88,4.18 -0.88,7.2 v 5.38 c 0,2.8 0.41,5.04 1.24,6.72 0.83,1.68 2.24,2.88 4.24,3.61 2,0.73 4.75,1.09 8.25,1.09 1.82,0 3.7,-0.13 5.65,-0.4 1.95,-0.27 3.93,-0.62 5.94,-1.07 v 10.04 c -2.46,0.53 -4.79,0.92 -6.97,1.18 -2.19,0.25 -4.36,0.37 -6.52,0.37 z"
   id="path60" />
			<path
   class="st6"
   d="m 1431.22,562.72 c -2.66,0 -5.24,-0.17 -7.73,-0.5 -2.49,-0.33 -4.82,-0.84 -6.97,-1.51 v -9.79 c 2.24,0.64 4.59,1.14 7.06,1.49 2.46,0.35 4.94,0.53 7.43,0.53 3.05,0 5.19,-0.41 6.43,-1.22 1.23,-0.81 1.85,-1.92 1.85,-3.32 0,-1.12 -0.31,-1.98 -0.92,-2.58 -0.62,-0.6 -1.71,-1.06 -3.28,-1.37 l -7.39,-1.34 c -4.34,-0.81 -7.49,-2.31 -9.45,-4.49 -1.96,-2.18 -2.94,-5.1 -2.94,-8.74 0,-4.42 1.77,-7.98 5.31,-10.67 3.54,-2.69 8.98,-4.03 16.32,-4.03 2.21,0 4.39,0.13 6.53,0.38 2.14,0.25 4.05,0.6 5.73,1.05 v 9.83 c -1.76,-0.48 -3.66,-0.85 -5.69,-1.11 -2.03,-0.27 -4.09,-0.4 -6.19,-0.4 -2.55,0 -4.51,0.22 -5.88,0.65 -1.37,0.43 -2.33,1.01 -2.88,1.72 -0.55,0.71 -0.82,1.46 -0.82,2.25 0,0.98 0.31,1.78 0.92,2.39 0.62,0.62 1.68,1.08 3.19,1.39 l 7.48,1.39 c 4.09,0.76 7.17,2.14 9.26,4.16 2.09,2.02 3.13,5.03 3.13,9.03 0,4.59 -1.78,8.21 -5.33,10.86 -3.55,2.65 -8.61,3.95 -15.17,3.95 z"
   id="path62" />
			<path
   class="st6"
   d="m 1453.99,526.43 v -10.54 h 32.97 v 10.54 z m 24.74,36.25 c -5.54,0 -9.81,-1.38 -12.79,-4.14 -2.98,-2.76 -4.47,-7.13 -4.47,-13.12 v -29.53 l 2.44,-16.21 h 10.92 v 43.68 c 0,3.11 0.59,5.26 1.79,6.47 1.19,1.2 3.1,1.81 5.73,1.81 0.76,0 1.52,-0.04 2.29,-0.13 0.77,-0.08 1.63,-0.21 2.58,-0.38 v 10.54 c -1.2,0.28 -2.55,0.52 -4.05,0.71 -1.51,0.2 -2.99,0.3 -4.44,0.3 z"
   id="path64" />
			<path
   class="st2"
   d="m 1531.22,562.68 c -4.7,0 -8.37,-1.22 -10.98,-3.67 -2.62,-2.45 -3.93,-5.65 -3.93,-9.6 0,-4.31 1.5,-7.69 4.51,-10.14 3.01,-2.45 7.86,-3.9 14.55,-4.35 l 9.66,-0.8 1.51,7.39 -9.79,0.8 c -2.55,0.2 -4.4,0.78 -5.54,1.76 -1.15,0.98 -1.72,2.32 -1.72,4.03 0,1.71 0.52,3.02 1.55,3.93 1.04,0.91 2.55,1.37 4.54,1.37 1.23,0 2.49,-0.23 3.78,-0.69 1.29,-0.46 2.46,-1.21 3.53,-2.25 V 533.7 c 0,-2.13 -0.34,-3.8 -1.03,-5.02 -0.69,-1.22 -1.8,-2.08 -3.34,-2.58 -1.54,-0.5 -3.57,-0.76 -6.09,-0.76 -1.76,0 -3.76,0.15 -5.99,0.44 -2.23,0.29 -4.38,0.76 -6.45,1.41 v -10.12 c 2.27,-0.64 4.73,-1.12 7.39,-1.43 2.66,-0.31 5.15,-0.46 7.48,-0.46 4.82,0 8.79,0.6 11.93,1.81 3.14,1.2 5.45,3.22 6.93,6.05 1.48,2.83 2.23,6.66 2.23,11.51 v 27.3 h -11 l -0.97,-4.58 h -0.59 c -1.37,1.85 -3.12,3.21 -5.25,4.1 -2.12,0.87 -4.43,1.31 -6.92,1.31 z"
   id="path66" />
			<path
   class="st2"
   d="m 1565.58,561.84 v -45.95 h 10.92 l 1.05,5.96 h 0.67 c 1.29,-2.3 3,-3.97 5.12,-5.02 2.13,-1.05 4.47,-1.58 7.01,-1.58 0.67,0 1.34,0.03 2,0.08 0.66,0.06 1.24,0.14 1.74,0.25 v 12.1 c -0.7,-0.11 -1.44,-0.2 -2.23,-0.25 -0.78,-0.06 -1.55,-0.08 -2.31,-0.08 -1.32,0 -2.64,0.16 -3.97,0.48 -1.33,0.32 -2.58,0.81 -3.74,1.47 -1.16,0.66 -2.14,1.46 -2.92,2.42 v 30.11 h -13.34 z"
   id="path68" />
		</g>
	</g>
	<ellipse
   class="st7"
   cx="1502.14"
   cy="554.42999"
   rx="8.5"
   ry="8"
   id="ellipse74" />
</g>
</svg>
