<?xml version="1.0" encoding="utf-8"?>
<!-- Generator: Adobe Illustrator 25.3.0, SVG Export Plug-In . SVG Version: 6.00 Build 0)  -->
<svg version="1.1" id="Layer_1" xmlns="http://www.w3.org/2000/svg" xmlns:xlink="http://www.w3.org/1999/xlink" x="0px" y="0px"
	 viewBox="0 0 1920 1080" style="enable-background:new 0 0 1920 1080;" xml:space="preserve">
<style type="text/css">
	.st0{fill:#EBF0F1;}
	.st1{fill:#F2E916;}
	.st2{fill:#0895D2;}
	.st3{fill:#FFFFFF;}
	.st4{fill:#C5EEFC;}
	.st5{fill:#F4F4F4;}
	.st6{fill:#686868;}
	.st7{fill:#E8B410;}
</style>
<g>
	<g>
		<path class="st0" d="M707.51-173.71c-9.29,0-17.48-2.56-24.59-7.68l6.82-11.05c6.02,3.97,11.97,5.95,17.87,5.95
			c3.07,0,4.61-0.99,4.61-2.98c0-0.96-0.62-1.73-1.87-2.31c-1.25-0.58-3.41-1.28-6.48-2.11c-6.08-1.66-10.68-3.67-13.78-6
			c-3.11-2.34-4.66-5.94-4.66-10.81c0-5.38,1.94-9.59,5.81-12.63c3.87-3.04,8.88-4.56,15.03-4.56c8,0,15.14,2.02,21.42,6.05
			l-6.24,11.53c-5.76-3.2-10.89-4.8-15.37-4.8c-2.82,0-4.23,0.9-4.23,2.69c0,0.9,0.61,1.65,1.83,2.26c1.22,0.61,3.42,1.39,6.63,2.35
			c2.94,0.83,5.38,1.65,7.3,2.45c1.92,0.8,3.81,1.84,5.67,3.12c1.86,1.28,3.23,2.83,4.13,4.66c0.9,1.82,1.34,3.99,1.34,6.48
			c0,5.57-1.92,9.86-5.76,12.87C719.13-175.21,713.98-173.71,707.51-173.71z"/>
		<path class="st0" d="M751.12-173.71c-5.12,0-9.32-1.42-12.58-4.27c-3.27-2.85-4.9-6.83-4.9-11.96c0-5.25,1.83-9.28,5.47-12.1
			c3.65-2.82,8.61-4.23,14.89-4.23c4.55,0,8.71,0.67,12.49,2.02v-0.86c0-5.63-3.46-8.45-10.37-8.45c-4.67,0-9.45,0.96-14.31,2.88
			l-3.75-12.87c6.53-2.69,13.54-4.03,21.04-4.03c8.96,0,15.56,2.11,19.79,6.34c3.71,3.65,5.57,9.16,5.57,16.52v29.87h-18.06v-5.38
			C762.48-175.88,757.39-173.71,751.12-173.71z M757.65-185.13c2.69,0,4.87-0.78,6.53-2.35c1.66-1.57,2.5-3.63,2.5-6.2v-2.4
			c-2.11-0.9-4.48-1.34-7.11-1.34c-2.63,0-4.67,0.59-6.15,1.78c-1.47,1.19-2.21,2.8-2.21,4.85c0,1.73,0.59,3.11,1.78,4.13
			C754.17-185.65,755.73-185.13,757.65-185.13z"/>
		<path class="st0" d="M794.15-174.86v-70.12h18.25v70.12H794.15z"/>
		<path class="st0" d="M839.86-173.71c-5.51,0-9.83-1.7-12.97-5.09c-3.14-3.39-4.71-8.07-4.71-14.02v-34h18.25v28.14
			c0,2.75,0.67,4.9,2.02,6.44c1.34,1.54,3.14,2.31,5.38,2.31c2.24,0,4.07-0.77,5.47-2.31c1.41-1.54,2.11-3.68,2.11-6.44v-28.14
			h18.25v51.96h-18.25v-7.11C851.13-176.46,845.95-173.71,839.86-173.71z"/>
		<path class="st0" d="M904.5-173.71c-6.4,0-11.83-2.48-16.28-7.44c-4.45-4.96-6.68-11.51-6.68-19.64c0-8.2,2.21-14.78,6.63-19.74
			c4.42-4.96,9.83-7.44,16.23-7.44c6.27,0,11.59,2.5,15.94,7.49v-24.49h18.25v70.12h-18.25v-6.92
			C915.93-176.39,910.65-173.71,904.5-173.71z M902.54-192.34c2.08,2.24,4.59,3.36,7.54,3.36c2.94,0,5.44-1.12,7.49-3.36
			c2.05-2.24,3.07-5.12,3.07-8.64c0-3.39-1.03-6.2-3.07-8.4c-2.05-2.21-4.55-3.31-7.49-3.31c-3.01,0-5.54,1.12-7.59,3.36
			c-2.05,2.24-3.07,5.09-3.07,8.55C899.41-197.4,900.45-194.58,902.54-192.34z"/>
	</g>
	<circle class="st1" cx="666.74" cy="-183.07" r="8.21"/>
</g>
<text transform="matrix(1 0 0 1 675.3311 -279.5938)" style="font-family:'GothamPro-Black'; font-size:107px;">salud</text>
<rect class="st2" width="960" height="1080"/>
<g>
	<g>
		<g>
			<path class="st3" d="M325.9,580.32v-64.43h11.21l0.84,4.91h0.63c1.34-1.71,3.04-3.07,5.08-4.09c2.04-1.02,4.42-1.53,7.14-1.53
				c3.39,0,6.51,0.77,9.37,2.31c2.86,1.54,5.15,3.98,6.87,7.33c1.72,3.35,2.58,7.74,2.58,13.17c0,5.35-0.94,9.85-2.81,13.5
				c-1.88,3.65-4.68,6.43-8.4,8.34c-3.72,1.9-8.33,2.86-13.82,2.86c-0.92,0-1.84-0.04-2.75-0.1c-0.91-0.07-1.77-0.15-2.58-0.23
				v17.98H325.9z M344.59,552.52c3.86,0,6.76-1.04,8.69-3.11c1.93-2.07,2.9-5.53,2.9-10.37c0-3.33-0.39-5.94-1.16-7.83
				c-0.77-1.89-1.86-3.21-3.28-3.97s-3.04-1.13-4.89-1.13c-1.4,0-2.77,0.25-4.12,0.76c-1.34,0.5-2.51,1.29-3.49,2.35v22.81
				c0.73,0.11,1.58,0.22,2.54,0.34C342.77,552.46,343.7,552.52,344.59,552.52z"/>
			<path class="st3" d="M377.56,561.84v-45.95h10.92l1.05,5.96h0.67c1.29-2.3,3-3.97,5.12-5.02c2.13-1.05,4.47-1.58,7.01-1.58
				c0.67,0,1.34,0.03,2,0.08c0.66,0.06,1.24,0.14,1.74,0.25v12.1c-0.7-0.11-1.44-0.2-2.23-0.25c-0.78-0.06-1.55-0.08-2.31-0.08
				c-1.32,0-2.64,0.16-3.97,0.48c-1.33,0.32-2.58,0.81-3.74,1.47c-1.16,0.66-2.14,1.46-2.92,2.42v30.11H377.56z"/>
			<path class="st3" d="M434.26,562.72c-5.77,0-10.52-0.83-14.26-2.48c-3.74-1.65-6.5-4.24-8.29-7.77
				c-1.79-3.53-2.69-8.06-2.69-13.61c0-5.07,0.84-9.37,2.52-12.92c1.68-3.54,4.1-6.22,7.27-8.04c3.16-1.82,7.01-2.73,11.55-2.73
				c4.34,0,7.99,0.92,10.94,2.75c2.95,1.83,5.19,4.54,6.72,8.11c1.53,3.57,2.29,7.97,2.29,13.21v3.49h-33.64v-7.69h23.31l-2.14,0.8
				c0-3.05-0.28-5.46-0.84-7.22c-0.56-1.76-1.41-3.04-2.54-3.82c-1.13-0.78-2.54-1.18-4.22-1.18c-1.71,0-3.14,0.39-4.31,1.16
				c-1.16,0.77-2.04,2.04-2.62,3.82c-0.59,1.78-0.88,4.18-0.88,7.2v5.38c0,2.8,0.41,5.04,1.24,6.72c0.83,1.68,2.24,2.88,4.24,3.61
				c2,0.73,4.75,1.09,8.25,1.09c1.82,0,3.7-0.13,5.65-0.4c1.95-0.27,3.93-0.62,5.94-1.07v10.04c-2.46,0.53-4.79,0.92-6.97,1.18
				C438.59,562.6,436.42,562.72,434.26,562.72z"/>
			<path class="st3" d="M471.22,562.72c-2.66,0-5.24-0.17-7.73-0.5s-4.82-0.84-6.97-1.51v-9.79c2.24,0.64,4.59,1.14,7.06,1.49
				c2.46,0.35,4.94,0.53,7.43,0.53c3.05,0,5.19-0.41,6.43-1.22c1.23-0.81,1.85-1.92,1.85-3.32c0-1.12-0.31-1.98-0.92-2.58
				c-0.62-0.6-1.71-1.06-3.28-1.37l-7.39-1.34c-4.34-0.81-7.49-2.31-9.45-4.49s-2.94-5.1-2.94-8.74c0-4.42,1.77-7.98,5.31-10.67
				s8.98-4.03,16.32-4.03c2.21,0,4.39,0.13,6.53,0.38c2.14,0.25,4.05,0.6,5.73,1.05v9.83c-1.76-0.48-3.66-0.85-5.69-1.11
				c-2.03-0.27-4.09-0.4-6.19-0.4c-2.55,0-4.51,0.22-5.88,0.65c-1.37,0.43-2.33,1.01-2.88,1.72c-0.55,0.71-0.82,1.46-0.82,2.25
				c0,0.98,0.31,1.78,0.92,2.39c0.62,0.62,1.68,1.08,3.19,1.39l7.48,1.39c4.09,0.76,7.17,2.14,9.26,4.16s3.13,5.03,3.13,9.03
				c0,4.59-1.78,8.21-5.33,10.86S477.78,562.72,471.22,562.72z"/>
			<path class="st3" d="M493.99,526.43v-10.54h32.97v10.54H493.99z M518.73,562.68c-5.54,0-9.81-1.38-12.79-4.14
				c-2.98-2.76-4.47-7.13-4.47-13.12v-29.53l2.44-16.21h10.92v43.68c0,3.11,0.59,5.26,1.79,6.47c1.19,1.2,3.1,1.81,5.73,1.81
				c0.76,0,1.52-0.04,2.29-0.13c0.77-0.08,1.63-0.21,2.58-0.38v10.54c-1.2,0.28-2.55,0.52-4.05,0.71
				C521.66,562.58,520.18,562.68,518.73,562.68z"/>
			<path class="st4" d="M571.22,562.68c-4.7,0-8.37-1.22-10.98-3.67c-2.62-2.45-3.93-5.65-3.93-9.6c0-4.31,1.5-7.69,4.51-10.14
				c3.01-2.45,7.86-3.9,14.55-4.35l9.66-0.8l1.51,7.39l-9.79,0.8c-2.55,0.2-4.4,0.78-5.54,1.76c-1.15,0.98-1.72,2.32-1.72,4.03
				c0,1.71,0.52,3.02,1.55,3.93c1.04,0.91,2.55,1.37,4.54,1.37c1.23,0,2.49-0.23,3.78-0.69c1.29-0.46,2.46-1.21,3.53-2.25V533.7
				c0-2.13-0.34-3.8-1.03-5.02c-0.69-1.22-1.8-2.08-3.34-2.58c-1.54-0.5-3.57-0.76-6.09-0.76c-1.76,0-3.76,0.15-5.99,0.44
				s-4.38,0.76-6.45,1.41v-10.12c2.27-0.64,4.73-1.12,7.39-1.43c2.66-0.31,5.15-0.46,7.48-0.46c4.82,0,8.79,0.6,11.93,1.81
				c3.14,1.2,5.45,3.22,6.93,6.05c1.48,2.83,2.23,6.66,2.23,11.51v27.3h-11l-0.97-4.58h-0.59c-1.37,1.85-3.12,3.21-5.25,4.1
				C576.02,562.24,573.71,562.68,571.22,562.68z"/>
			<path class="st4" d="M605.58,561.84v-45.95h10.92l1.05,5.96h0.67c1.29-2.3,3-3.97,5.12-5.02c2.13-1.05,4.47-1.58,7.01-1.58
				c0.67,0,1.34,0.03,2,0.08c0.66,0.06,1.24,0.14,1.74,0.25v12.1c-0.7-0.11-1.44-0.2-2.23-0.25c-0.78-0.06-1.55-0.08-2.31-0.08
				c-1.32,0-2.64,0.16-3.97,0.48c-1.33,0.32-2.58,0.81-3.74,1.47c-1.16,0.66-2.14,1.46-2.92,2.42v30.11H605.58z"/>
		</g>
	</g>
	<ellipse class="st1" cx="542.14" cy="554.43" rx="8.5" ry="8"/>
</g>
<rect x="960" class="st5" width="960" height="1080"/>
<g>
	<g>
		<g>
			<path class="st6" d="M1285.9,580.32v-64.43h11.21l0.84,4.91h0.63c1.34-1.71,3.04-3.07,5.08-4.09c2.04-1.02,4.42-1.53,7.14-1.53
				c3.39,0,6.51,0.77,9.37,2.31c2.86,1.54,5.15,3.98,6.87,7.33c1.72,3.35,2.58,7.74,2.58,13.17c0,5.35-0.94,9.85-2.81,13.5
				c-1.88,3.65-4.68,6.43-8.4,8.34c-3.72,1.9-8.33,2.86-13.82,2.86c-0.92,0-1.84-0.04-2.75-0.1c-0.91-0.07-1.77-0.15-2.58-0.23
				v17.98H1285.9z M1304.59,552.52c3.86,0,6.76-1.04,8.69-3.11c1.93-2.07,2.9-5.53,2.9-10.37c0-3.33-0.39-5.94-1.16-7.83
				c-0.77-1.89-1.86-3.21-3.28-3.97s-3.04-1.13-4.89-1.13c-1.4,0-2.77,0.25-4.12,0.76c-1.34,0.5-2.51,1.29-3.49,2.35v22.81
				c0.73,0.11,1.58,0.22,2.54,0.34C1302.77,552.46,1303.7,552.52,1304.59,552.52z"/>
			<path class="st6" d="M1337.56,561.84v-45.95h10.92l1.05,5.96h0.67c1.29-2.3,3-3.97,5.12-5.02c2.13-1.05,4.47-1.58,7.01-1.58
				c0.67,0,1.34,0.03,2,0.08c0.66,0.06,1.24,0.14,1.74,0.25v12.1c-0.7-0.11-1.44-0.2-2.23-0.25c-0.78-0.06-1.55-0.08-2.31-0.08
				c-1.32,0-2.64,0.16-3.97,0.48c-1.33,0.32-2.58,0.81-3.74,1.47c-1.16,0.66-2.14,1.46-2.92,2.42v30.11H1337.56z"/>
			<path class="st6" d="M1394.26,562.72c-5.77,0-10.52-0.83-14.26-2.48c-3.74-1.65-6.5-4.24-8.29-7.77
				c-1.79-3.53-2.69-8.06-2.69-13.61c0-5.07,0.84-9.37,2.52-12.92c1.68-3.54,4.1-6.22,7.27-8.04c3.16-1.82,7.01-2.73,11.55-2.73
				c4.34,0,7.99,0.92,10.94,2.75c2.95,1.83,5.19,4.54,6.72,8.11c1.53,3.57,2.29,7.97,2.29,13.21v3.49h-33.64v-7.69h23.31l-2.14,0.8
				c0-3.05-0.28-5.46-0.84-7.22c-0.56-1.76-1.41-3.04-2.54-3.82c-1.13-0.78-2.54-1.18-4.22-1.18c-1.71,0-3.14,0.39-4.31,1.16
				c-1.16,0.77-2.04,2.04-2.62,3.82c-0.59,1.78-0.88,4.18-0.88,7.2v5.38c0,2.8,0.41,5.04,1.24,6.72c0.83,1.68,2.24,2.88,4.24,3.61
				c2,0.73,4.75,1.09,8.25,1.09c1.82,0,3.7-0.13,5.65-0.4c1.95-0.27,3.93-0.62,5.94-1.07v10.04c-2.46,0.53-4.79,0.92-6.97,1.18
				C1398.59,562.6,1396.42,562.72,1394.26,562.72z"/>
			<path class="st6" d="M1431.22,562.72c-2.66,0-5.24-0.17-7.73-0.5s-4.82-0.84-6.97-1.51v-9.79c2.24,0.64,4.59,1.14,7.06,1.49
				c2.46,0.35,4.94,0.53,7.43,0.53c3.05,0,5.19-0.41,6.43-1.22c1.23-0.81,1.85-1.92,1.85-3.32c0-1.12-0.31-1.98-0.92-2.58
				c-0.62-0.6-1.71-1.06-3.28-1.37l-7.39-1.34c-4.34-0.81-7.49-2.31-9.45-4.49s-2.94-5.1-2.94-8.74c0-4.42,1.77-7.98,5.31-10.67
				s8.98-4.03,16.32-4.03c2.21,0,4.39,0.13,6.53,0.38c2.14,0.25,4.05,0.6,5.73,1.05v9.83c-1.76-0.48-3.66-0.85-5.69-1.11
				c-2.03-0.27-4.09-0.4-6.19-0.4c-2.55,0-4.51,0.22-5.88,0.65c-1.37,0.43-2.33,1.01-2.88,1.72c-0.55,0.71-0.82,1.46-0.82,2.25
				c0,0.98,0.31,1.78,0.92,2.39c0.62,0.62,1.68,1.08,3.19,1.39l7.48,1.39c4.09,0.76,7.17,2.14,9.26,4.16s3.13,5.03,3.13,9.03
				c0,4.59-1.78,8.21-5.33,10.86S1437.78,562.72,1431.22,562.72z"/>
			<path class="st6" d="M1453.99,526.43v-10.54h32.97v10.54H1453.99z M1478.73,562.68c-5.54,0-9.81-1.38-12.79-4.14
				c-2.98-2.76-4.47-7.13-4.47-13.12v-29.53l2.44-16.21h10.92v43.68c0,3.11,0.59,5.26,1.79,6.47c1.19,1.2,3.1,1.81,5.73,1.81
				c0.76,0,1.52-0.04,2.29-0.13c0.77-0.08,1.63-0.21,2.58-0.38v10.54c-1.2,0.28-2.55,0.52-4.05,0.71
				C1481.66,562.58,1480.18,562.68,1478.73,562.68z"/>
			<path class="st2" d="M1531.22,562.68c-4.7,0-8.37-1.22-10.98-3.67c-2.62-2.45-3.93-5.65-3.93-9.6c0-4.31,1.5-7.69,4.51-10.14
				c3.01-2.45,7.86-3.9,14.55-4.35l9.66-0.8l1.51,7.39l-9.79,0.8c-2.55,0.2-4.4,0.78-5.54,1.76c-1.15,0.98-1.72,2.32-1.72,4.03
				c0,1.71,0.52,3.02,1.55,3.93c1.04,0.91,2.55,1.37,4.54,1.37c1.23,0,2.49-0.23,3.78-0.69c1.29-0.46,2.46-1.21,3.53-2.25V533.7
				c0-2.13-0.34-3.8-1.03-5.02c-0.69-1.22-1.8-2.08-3.34-2.58c-1.54-0.5-3.57-0.76-6.09-0.76c-1.76,0-3.76,0.15-5.99,0.44
				s-4.38,0.76-6.45,1.41v-10.12c2.27-0.64,4.73-1.12,7.39-1.43c2.66-0.31,5.15-0.46,7.48-0.46c4.82,0,8.79,0.6,11.93,1.81
				c3.14,1.2,5.45,3.22,6.93,6.05c1.48,2.83,2.23,6.66,2.23,11.51v27.3h-11l-0.97-4.58h-0.59c-1.37,1.85-3.12,3.21-5.25,4.1
				C1536.02,562.24,1533.71,562.68,1531.22,562.68z"/>
			<path class="st2" d="M1565.58,561.84v-45.95h10.92l1.05,5.96h0.67c1.29-2.3,3-3.97,5.12-5.02c2.13-1.05,4.47-1.58,7.01-1.58
				c0.67,0,1.34,0.03,2,0.08c0.66,0.06,1.24,0.14,1.74,0.25v12.1c-0.7-0.11-1.44-0.2-2.23-0.25c-0.78-0.06-1.55-0.08-2.31-0.08
				c-1.32,0-2.64,0.16-3.97,0.48c-1.33,0.32-2.58,0.81-3.74,1.47c-1.16,0.66-2.14,1.46-2.92,2.42v30.11H1565.58z"/>
		</g>
	</g>
	<ellipse class="st7" cx="1502.14" cy="554.43" rx="8.5" ry="8"/>
</g>
</svg>
